<?xml version="1.0" encoding="utf-8"?>
<!-- Generator: Adobe Illustrator 23.0.1, SVG Export Plug-In . SVG Version: 6.00 Build 0)  -->
<svg version="1.1" id="Слой_1" xmlns="http://www.w3.org/2000/svg" xmlns:xlink="http://www.w3.org/1999/xlink" x="0px" y="0px"
	 viewBox="0 0 200 49" style="enable-background:new 0 0 200 49;" xml:space="preserve">
<style type="text/css">
	.st0{fill:none;}
</style>
<g>
	<path d="M43,18.16h5.72c1.37,0,2.58,0.26,3.63,0.78c1.05,0.52,1.87,1.26,2.45,2.21s0.87,2.05,0.87,3.31c0,1.26-0.29,2.36-0.87,3.31
		s-1.4,1.68-2.45,2.2c-1.05,0.52-2.26,0.78-3.63,0.78H43V18.16z M48.58,28.37c1.26,0,2.26-0.35,3.01-1.05s1.12-1.65,1.12-2.85
		c0-1.2-0.38-2.15-1.12-2.85c-0.75-0.7-1.75-1.05-3.01-1.05h-2.66v7.81H48.58z"/>
	<path d="M57.81,19.28c-0.32-0.3-0.49-0.67-0.49-1.12c0-0.44,0.16-0.82,0.49-1.12c0.32-0.3,0.74-0.45,1.26-0.45
		c0.52,0,0.94,0.14,1.26,0.43c0.32,0.29,0.49,0.65,0.49,1.08c0,0.47-0.16,0.85-0.49,1.16c-0.32,0.31-0.74,0.46-1.26,0.46
		C58.56,19.73,58.14,19.58,57.81,19.28z M57.67,21.08h2.81v9.68h-2.81V21.08z"/>
	<path d="M73.08,21.08v8.06c0,1.78-0.46,3.1-1.39,3.96c-0.92,0.87-2.27,1.3-4.05,1.3c-0.94,0-1.82-0.12-2.66-0.34
		c-0.84-0.23-1.54-0.56-2.09-0.99l1.12-2.02c0.41,0.34,0.92,0.6,1.55,0.8c0.62,0.2,1.25,0.3,1.87,0.3c0.97,0,1.69-0.22,2.15-0.66
		c0.46-0.44,0.69-1.1,0.69-1.99v-0.41c-0.73,0.8-1.75,1.21-3.06,1.21c-0.89,0-1.7-0.2-2.44-0.59c-0.74-0.39-1.32-0.94-1.75-1.65
		c-0.43-0.71-0.65-1.52-0.65-2.45c0-0.92,0.22-1.74,0.65-2.45c0.43-0.71,1.02-1.26,1.75-1.65c0.74-0.39,1.55-0.58,2.44-0.58
		c1.4,0,2.47,0.46,3.2,1.39v-1.24H73.08z M69.59,27.34c0.47-0.44,0.71-1.01,0.71-1.72s-0.24-1.28-0.71-1.72
		c-0.47-0.44-1.08-0.66-1.83-0.66c-0.74,0-1.36,0.22-1.84,0.66c-0.48,0.44-0.72,1.01-0.72,1.72s0.24,1.28,0.72,1.72
		c0.48,0.44,1.09,0.66,1.84,0.66C68.51,27.99,69.12,27.77,69.59,27.34z"/>
	<path d="M75.83,19.28c-0.32-0.3-0.49-0.67-0.49-1.12c0-0.44,0.16-0.82,0.49-1.12c0.32-0.3,0.74-0.45,1.26-0.45
		c0.52,0,0.94,0.14,1.26,0.43c0.32,0.29,0.49,0.65,0.49,1.08c0,0.47-0.16,0.85-0.49,1.16c-0.32,0.31-0.74,0.46-1.26,0.46
		C76.58,19.73,76.16,19.58,75.83,19.28z M75.69,21.08h2.81v9.68h-2.81V21.08z"/>
	<path d="M87.35,30.3c-0.28,0.2-0.62,0.36-1.02,0.46c-0.4,0.1-0.83,0.15-1.27,0.15c-1.15,0-2.04-0.29-2.67-0.88
		s-0.94-1.45-0.94-2.59v-3.98h-1.49V21.3h1.49v-2.36h2.81v2.36h2.41v2.16h-2.41v3.94c0,0.41,0.1,0.72,0.32,0.95
		c0.21,0.22,0.51,0.33,0.89,0.33c0.44,0,0.82-0.12,1.13-0.36L87.35,30.3z"/>
	<path d="M102.26,30.76l-2.43-3.51h-0.14h-2.54v3.51h-2.92v-12.6h5.45c1.12,0,2.08,0.19,2.91,0.56c0.82,0.37,1.46,0.9,1.9,1.58
		c0.44,0.68,0.67,1.49,0.67,2.43s-0.23,1.74-0.68,2.42c-0.45,0.68-1.09,1.2-1.92,1.56l2.83,4.05H102.26z M101.52,21.11
		c-0.46-0.38-1.12-0.57-2-0.57h-2.38v4.39h2.38c0.88,0,1.54-0.19,2-0.58c0.46-0.38,0.68-0.92,0.68-1.62
		C102.2,22.03,101.97,21.49,101.52,21.11z"/>
	<path d="M116.69,26.72h-7.33c0.13,0.6,0.44,1.07,0.94,1.42c0.49,0.35,1.1,0.52,1.84,0.52c0.5,0,0.95-0.07,1.34-0.22
		c0.39-0.15,0.75-0.39,1.09-0.71l1.49,1.62c-0.91,1.04-2.24,1.57-4,1.57c-1.09,0-2.06-0.21-2.9-0.64c-0.84-0.43-1.49-1.02-1.95-1.77
		c-0.46-0.76-0.68-1.61-0.68-2.57c0-0.95,0.22-1.8,0.68-2.57c0.45-0.76,1.07-1.36,1.85-1.78c0.79-0.43,1.67-0.64,2.64-0.64
		c0.95,0,1.81,0.2,2.57,0.61c0.77,0.41,1.37,0.99,1.81,1.75s0.66,1.65,0.66,2.65C116.75,25.99,116.73,26.25,116.69,26.72z
		 M110.12,23.6c-0.43,0.36-0.7,0.85-0.79,1.48h4.77c-0.1-0.61-0.36-1.1-0.79-1.47c-0.43-0.37-0.96-0.55-1.58-0.55
		C111.09,23.06,110.55,23.24,110.12,23.6z"/>
	<path d="M120.52,30.27c-0.82-0.43-1.46-1.02-1.93-1.77s-0.69-1.61-0.69-2.57s0.23-1.82,0.69-2.57s1.1-1.35,1.93-1.77
		c0.82-0.43,1.75-0.64,2.78-0.64c1.02,0,1.91,0.21,2.67,0.64c0.76,0.43,1.32,1.04,1.67,1.83l-2.18,1.17
		c-0.5-0.89-1.23-1.33-2.18-1.33c-0.73,0-1.34,0.24-1.82,0.72c-0.48,0.48-0.72,1.13-0.72,1.96c0,0.83,0.24,1.48,0.72,1.96
		c0.48,0.48,1.09,0.72,1.82,0.72c0.96,0,1.69-0.44,2.18-1.33l2.18,1.19c-0.35,0.77-0.9,1.37-1.67,1.8
		c-0.76,0.43-1.65,0.65-2.67,0.65C122.26,30.91,121.34,30.7,120.52,30.27z"/>
	<path d="M130.99,30.27c-0.81-0.43-1.44-1.02-1.9-1.77s-0.68-1.61-0.68-2.57s0.23-1.82,0.68-2.57s1.09-1.35,1.9-1.77
		c0.81-0.43,1.72-0.64,2.75-0.64c1.02,0,1.93,0.21,2.74,0.64c0.8,0.43,1.43,1.02,1.89,1.77s0.68,1.61,0.68,2.57
		s-0.23,1.82-0.68,2.57s-1.09,1.35-1.89,1.77s-1.72,0.64-2.74,0.64C132.72,30.91,131.8,30.7,130.99,30.27z M135.51,27.88
		c0.46-0.49,0.69-1.14,0.69-1.95s-0.23-1.47-0.69-1.95s-1.05-0.73-1.77-0.73c-0.72,0-1.31,0.24-1.78,0.73s-0.7,1.14-0.7,1.95
		s0.23,1.47,0.7,1.95c0.47,0.49,1.06,0.73,1.78,0.73C134.46,28.6,135.05,28.36,135.51,27.88z"/>
	<path d="M150.91,21.08v8.06c0,1.78-0.46,3.1-1.39,3.96c-0.92,0.87-2.27,1.3-4.05,1.3c-0.94,0-1.82-0.12-2.66-0.34
		c-0.84-0.23-1.54-0.56-2.09-0.99l1.12-2.02c0.41,0.34,0.92,0.6,1.55,0.8c0.62,0.2,1.25,0.3,1.87,0.3c0.97,0,1.69-0.22,2.15-0.66
		s0.69-1.1,0.69-1.99v-0.41c-0.73,0.8-1.75,1.21-3.06,1.21c-0.89,0-1.7-0.2-2.44-0.59c-0.74-0.39-1.32-0.94-1.75-1.65
		c-0.43-0.71-0.65-1.52-0.65-2.45c0-0.92,0.22-1.74,0.65-2.45c0.43-0.71,1.02-1.26,1.75-1.65c0.74-0.39,1.55-0.58,2.44-0.58
		c1.4,0,2.47,0.46,3.2,1.39v-1.24H150.91z M147.43,27.34c0.47-0.44,0.71-1.01,0.71-1.72s-0.24-1.28-0.71-1.72
		c-0.47-0.44-1.08-0.66-1.83-0.66s-1.36,0.22-1.84,0.66c-0.48,0.44-0.72,1.01-0.72,1.72s0.24,1.28,0.72,1.72
		c0.48,0.44,1.09,0.66,1.84,0.66S146.95,27.77,147.43,27.34z"/>
	<path d="M162.31,22.02c0.74,0.72,1.11,1.79,1.11,3.2v5.54h-2.81v-5.11c0-0.77-0.17-1.34-0.5-1.72s-0.82-0.57-1.46-0.57
		c-0.71,0-1.27,0.22-1.69,0.66c-0.42,0.44-0.63,1.09-0.63,1.95v4.79h-2.81v-9.68h2.68v1.13c0.37-0.41,0.83-0.72,1.39-0.95
		c0.55-0.22,1.16-0.33,1.82-0.33C160.6,20.94,161.57,21.3,162.31,22.02z"/>
	<path d="M166.1,19.28c-0.32-0.3-0.49-0.67-0.49-1.12c0-0.44,0.16-0.82,0.49-1.12c0.32-0.3,0.74-0.45,1.26-0.45
		c0.52,0,0.94,0.14,1.26,0.43s0.49,0.65,0.49,1.08c0,0.47-0.16,0.85-0.49,1.16c-0.32,0.31-0.74,0.46-1.26,0.46
		C166.84,19.73,166.42,19.58,166.1,19.28z M165.96,21.08h2.81v9.68h-2.81V21.08z"/>
	<path d="M179.35,28.6v2.16h-8.64v-1.69l4.93-5.83h-4.81v-2.16h8.35v1.69l-4.93,5.83H179.35z"/>
	<path d="M190.45,26.72h-7.33c0.13,0.6,0.44,1.07,0.94,1.42c0.49,0.35,1.1,0.52,1.84,0.52c0.5,0,0.95-0.07,1.34-0.22
		c0.39-0.15,0.75-0.39,1.09-0.71l1.49,1.62c-0.91,1.04-2.24,1.57-4,1.57c-1.09,0-2.06-0.21-2.9-0.64s-1.49-1.02-1.94-1.77
		s-0.68-1.61-0.68-2.57c0-0.95,0.22-1.8,0.67-2.57c0.45-0.76,1.07-1.36,1.85-1.78c0.79-0.43,1.66-0.64,2.64-0.64
		c0.95,0,1.81,0.2,2.57,0.61c0.77,0.41,1.37,0.99,1.81,1.75c0.44,0.76,0.66,1.65,0.66,2.65C190.51,25.99,190.49,26.25,190.45,26.72z
		 M183.89,23.6c-0.43,0.36-0.7,0.85-0.79,1.48h4.77c-0.1-0.61-0.36-1.1-0.79-1.47c-0.43-0.37-0.96-0.55-1.58-0.55
		C184.85,23.06,184.32,23.24,183.89,23.6z"/>
	<path d="M196.42,21.3c0.57-0.24,1.23-0.36,1.97-0.36v2.59c-0.31-0.02-0.52-0.04-0.63-0.04c-0.8,0-1.43,0.23-1.89,0.67
		c-0.46,0.45-0.68,1.12-0.68,2.03v4.57h-2.81v-9.68h2.68v1.28C195.4,21.89,195.85,21.54,196.42,21.3z"/>
</g>
<g>
	<circle cx="18" cy="10.57" r="2.07"/>
	<circle cx="4.07" cy="17.53" r="2.07"/>
	<circle cx="18" cy="24.5" r="2.07"/>
	<circle cx="4.07" cy="31.47" r="2.07"/>
	<circle cx="18" cy="38.43" r="2.07"/>
	<circle cx="31.93" cy="31.47" r="2.07"/>
	<circle cx="31.93" cy="17.53" r="2.07"/>
	<path d="M13.1,19.01l5.11-7.66l8.8,4.4c0.59,0.29,1.3,0.12,1.69-0.42l0.05-0.07l-10.48-5.24c-0.07,0.21-0.15,0.42-0.25,0.61
		c-0.19-0.12-0.36-0.25-0.52-0.4l-6.18,9.27l0,0C11.95,19.81,12.71,19.6,13.1,19.01z"/>
	<path d="M25.17,28.78L25.17,28.78l5.89,2.88c0.13-0.39,0.3-0.76,0.54-1.09l-5.74-2.81l0.17-0.26c0.44-0.67,0.44-1.53,0-2.2l0,0
		l-1.27,1.91l-1.77-0.88c-0.63-0.31-1.39-0.12-1.8,0.45l-0.01,0.01l2.9,1.45l0,0.01L25.17,28.78z"/>
	<path d="M20.65,13.44L20.65,13.44c-0.53,0.48-0.62,1.27-0.23,1.85l2.49,3.74c0.39,0.58,1.15,0.79,1.78,0.47l0,0L20.65,13.44z"/>
	<path d="M18.27,25.05l6.49-3.24l1.8,2.7l0,0.01l0.73,1.1l0-0.01l1.21,1.82c0.39,0.58,1.15,0.8,1.79,0.5l0.01-0.01l-2.28-3.42
		l1.5-2.24c0.39-0.59,0.3-1.37-0.22-1.84l-0.01-0.01l-2,3l-1.43-2.15l1.73-0.86c0.61-0.31,0.88-1.04,0.6-1.66v0l-3.01,1.51l0,0
		l-1.1,0.55l0,0l-5.51,2.75L18.27,25.05z"/>
	<path d="M17.42,23.39l-9.49-4.6l0,0c-0.28,0.62-0.03,1.35,0.58,1.65l1.64,0.81L8.71,23.4L8.7,23.39l-0.73,1.1l0.01,0.01L5.7,27.92
		l0.01,0.01c0.64,0.3,1.4,0.08,1.79-0.5l1.21-1.82l1.43,2.15l-5.47,2.73L3.46,31.5c0.2-0.03,0.4-0.06,0.61-0.06
		c0.01,0,0.03,0,0.04,0c0.09,0.18,0.17,0.38,0.23,0.57l3.8-1.9l0-0.01l5.54-2.77l0,0l1.15-0.57l-0.01-0.01
		c-0.41-0.57-1.17-0.76-1.8-0.45l-1.77,0.88l-1.8-2.7l1.8-2.7l5.7,2.71L17.42,23.39z"/>
	<path d="M22.9,29.98l-5.11,7.67l-8.73-4.37c-0.63-0.31-1.39-0.12-1.8,0.45l-0.01,0.01l10.48,5.24c0.07-0.21,0.15-0.42,0.25-0.61
		c0.19,0.12,0.36,0.25,0.52,0.4l6.18-9.27h0C24.06,29.19,23.29,29.39,22.9,29.98z"/>
	<path d="M7.45,23.7L7.45,23.7c0.44-0.67,0.44-1.53,0-2.2l-2.5-3.75l8.67-4.32c0.62-0.31,0.88-1.02,0.67-1.68l0-0.01L4.07,16.83
		c0.12,0.16,0.22,0.34,0.31,0.52c-0.25,0.2-0.52,0.39-0.81,0.52L7.45,23.7z"/>
	<path d="M16.35,34.89l0.01-0.01l-3.28-4.91c-0.39-0.58-1.15-0.79-1.78-0.47h0l3.26,4.89C14.96,34.97,15.72,35.18,16.35,34.89z"/>
	<path d="M4.69,31.47H4.65c-0.66,0-1.2-0.54-1.2-1.2v-8.87h0.04c0.66,0,1.2,0.54,1.2,1.2V31.47z"/>
	<g>
		<path d="M21.72,37.2L21.72,37.2c-0.24-0.65,0.05-1.38,0.68-1.68l9.46-4.6l0.53,1.1L21.72,37.2z"/>
	</g>
	<path d="M32.55,27.61h-0.04c-0.66,0-1.2-0.54-1.2-1.2v-8.87h1.24V27.61z"/>
</g>
</svg>
